<svg xmlns="http://www.w3.org/2000/svg" version="1.1" xmlns:xlink="http://www.w3.org/1999/xlink" xmlns:svgjs="http://svgjs.dev/svgjs" width="1000" height="623" viewBox="0 0 1000 623"><g transform="matrix(1,0,0,1,-0.6060606060606233,0.2522267206477409)"><svg viewBox="0 0 396 247" data-background-color="#282634" preserveAspectRatio="xMidYMid meet" height="623" width="1000" xmlns="http://www.w3.org/2000/svg" xmlns:xlink="http://www.w3.org/1999/xlink"><g id="tight-bounds" transform="matrix(1,0,0,1,0.2400000000000091,-0.09999999999999432)"><svg viewBox="0 0 395.52 247.2" height="247.2" width="395.52"><g><svg></svg></g><g><svg viewBox="0 0 395.52 247.2" height="247.2" width="395.52"><g transform="matrix(1,0,0,1,135.28756552956187,47.215199999999996)"><svg viewBox="0 0 124.94486894087625 152.7696" height="152.7696" width="124.94486894087625"><g><svg viewBox="0 0 124.94486894087625 152.7696" height="152.7696" width="124.94486894087625"><g><svg viewBox="0 0 124.94486894087625 152.7696" height="152.7696" width="124.94486894087625"><g><svg viewBox="0 0 124.94486894087625 152.7696" height="152.7696" width="124.94486894087625"><g id="textblocktransform"><svg viewBox="0 0 124.94486894087625 152.7696" height="152.7696" width="124.94486894087625" id="textblock"><g><svg viewBox="0 0 124.94486894087625 152.7696" height="152.7696" width="124.94486894087625"><g transform="matrix(1,0,0,1,0,0)"><svg width="124.94486894087625" viewBox="2.4000000953674316 -25.004384994506836 20.899999618530273 25.554384231567383" height="152.7696" data-palette-color="#ff4057"><path d="M12.1-25L12.1-25Q13.7-25 15.55-24.9 17.4-24.8 19.23-24.65 21.05-24.5 22.55-24.25L22.55-24.25 22.2-20.85Q19.85-20.95 17.53-21.03 15.2-21.1 12.9-21.1L12.9-21.1Q10.7-21.15 9.45-21 8.2-20.85 7.65-20.25 7.1-19.65 7.1-18.2L7.1-18.2Q7.1-16.45 7.98-15.9 8.85-15.35 10.6-14.95L10.6-14.95 17.55-13.35Q20.5-12.6 21.9-11.15 23.3-9.7 23.3-6.55L23.3-6.55Q23.3-3.55 22.18-2.02 21.05-0.5 18.7 0.03 16.35 0.55 12.75 0.55L12.75 0.55Q11.4 0.55 8.72 0.45 6.05 0.35 2.85-0.2L2.85-0.2 3.2-3.55Q4.35-3.5 5.7-3.45 7.05-3.4 8.58-3.4 10.1-3.4 11.65-3.4L11.65-3.4Q14.35-3.4 15.88-3.63 17.4-3.85 18.03-4.53 18.65-5.2 18.65-6.55L18.65-6.55Q18.65-8.2 17.63-8.78 16.6-9.35 14.85-9.75L14.85-9.75 8-11.35Q5.9-11.85 4.67-12.73 3.45-13.6 2.93-14.93 2.4-16.25 2.4-18.25L2.4-18.25Q2.4-21.05 3.4-22.53 4.4-24 6.53-24.53 8.65-25.05 12.1-25Z" opacity="1" transform="matrix(1,0,0,1,0,0)" fill="#ff4057" class="wordmark-text-0" data-fill-palette-color="primary" id="text-0"></path></svg></g></svg></g></svg></g></svg></g></svg></g></svg></g></svg></g><g><path d="M0 123.6c0-68.262 55.338-123.6 123.6-123.6 30.402 0 58.24 10.976 79.768 29.183l-11.147 0c-19.26-14.022-42.974-22.294-68.621-22.295-64.458 0-116.712 52.254-116.712 116.712 0 64.458 52.254 116.712 116.712 116.712 25.647 0 49.361-8.272 68.621-22.295l11.147 0c-21.528 18.206-49.366 29.183-79.768 29.183-68.262 0-123.6-55.338-123.6-123.6z" fill="#ff4057" stroke="transparent" data-fill-palette-color="tertiary"></path></g></svg></g><defs></defs></svg><rect width="395.52" height="247.2" fill="none" stroke="none" visibility="hidden"></rect></g></svg></g></svg>